<svg xmlns="http://www.w3.org/2000/svg" width="512" height="512" viewBox="0 0 512 512" style="overflow: visible;"><rect data-uid="o_f5jled88k_4" data-fl-background="" x="0" y="0" width="512" height="512" fill="#78f4b5"></rect><path transform="matrix(2.103192740316877, 0, 0, 2.103192740316877, 150.84037628473016, 150.84035849739513)" data-type="circle" data-cx="50" data-cy="50" data-r="50" d="M50 50m-50 0a50 50 0 1 0 100 0a50 50 0 1 0 -100 0" fill="#ffffff" data-uid="o_f5jled88k_5"></path><g transform="matrix(3.4435904835945563, 0, 0, 3.4435904835945563, 80.85965585159533, 83.65917902671437)" data-uid="o_f5jled88k_6"><path fill="rgba(12,128,121,1)" d="M90.2 33c-0.3-1.4-2.1-1.8-2.9-0.6c-6.2 8.1-12.4 2.9-17.4 7.9c-5 5-3.9 10.4-2.3 16.5  c-3.3 3.2-7.9 8.5-11.4 15.8V45.2c0-1.8 1.5-3.3 3.3-3.3c1.2 0 2.2-1 2.2-2.2l0-32.6c0-1.4-1.2-2.5-2.6-2.3C57.9 5 57 6.1 57 7.3  v22.4c0 1-0.8 1.8-1.8 1.8s-1.8-0.8-1.8-1.8V7.1c0-1.2-0.9-2.4-2.1-2.5c-1.4-0.1-2.6 1-2.6 2.3v22.8c0 1-0.8 1.8-1.8 1.8h0  c-1 0-1.8-0.8-1.8-1.8V6.9c0-1.2-0.9-2.4-2.1-2.5c-1.4-0.1-2.6 1-2.6 2.3v32.9c0 1.2 1 2.2 2.2 2.2h0.5c1.8 0 3.3 1.5 3.3 3.3v27  c-3.8-7.8-8.8-13.3-12.1-16.3c1.4-5.7 2.2-10.8-2.6-15.6c-5-5-9.8-3.1-17.3-7.9c-1.2-0.8-2.6-0.7-2.9 0.6c-1.4 6.6-0.8 17.4 3.8 22  c4.9 4.9 9.9 5.6 15.8 4.4c4.6 4.3 15.2 20.7 15.2 31.5c0 2.7 2.2 4.9 4.9 4.9c2.7 0 4.9-2.2 4.9-4.9c0-10.5 10.5-26.8 15.2-31.3  c5.6 1 10.4 0.2 15.1-4.5C91.1 50.5 91.6 39.7 90.2 33z" transform="matrix(1, 0, 0, 1, 0, 0)" data-uid="o_f5jled88k_7"></path></g></svg>